<svg width="371" height="211" viewBox="0 0 371 211" fill="none" xmlns="http://www.w3.org/2000/svg">
<path d="M0 5C0 2.23857 2.23858 0 5 0H125.286C126.509 0 127.69 0.448519 128.605 1.26065L234.218 95.0081C235.287 95.957 235.899 97.318 235.899 98.7474V146.5C235.899 149.261 238.138 151.5 240.899 151.5H295.533H361.25C366.635 151.5 371 155.865 371 161.25V161.25C371 166.635 366.635 171 361.25 171H331.92C326.398 171 321.92 175.477 321.92 181V201C321.92 206.523 317.443 211 311.92 211H10C4.47716 211 0 206.523 0 201V5Z" fill="#222327"/>
</svg>
